<svg width="108" height="108" viewBox="0 0 108 108" fill="none" xmlns="http://www.w3.org/2000/svg">
<g clip-path="url(#clip0_19_16)">
<path d="M108 0H0V108H108V0Z" fill="url(#paint0_linear_19_16)"/>
<mask id="mask0_19_16" style="mask-type:luminance" maskUnits="userSpaceOnUse" x="0" y="0" width="108" height="108">
<path d="M108 0H0V108H108V0Z" fill="white"/>
</mask>
<g mask="url(#mask0_19_16)">
<path d="M19.5371 93.0648L27.3531 89.6256C29.1782 88.8225 31.3059 89.6576 32.1048 91.4733L42.2926 114.627C43.0956 116.452 42.2606 118.579 40.4447 119.378L32.6287 122.818C27.9279 124.886 22.4422 122.745 20.3779 118.054L14.773 105.315C12.7046 100.615 14.8456 95.129 19.5371 93.0648Z" fill="#1C1C1C"/>
<path d="M90.0077 97.578L82.1915 101.018C80.3665 101.82 78.2388 100.985 77.4399 99.1694L67.2522 76.0159C66.4491 74.1909 67.2842 72.0632 69.1 71.2643L76.9161 67.8251C81.6168 65.7567 87.1025 67.8976 89.1668 72.5892L94.7717 85.3272C96.84 90.028 94.6992 95.5137 90.0077 97.578Z" fill="#1C1C1C"/>
<path d="M84.8291 81.3348L78.918 83.9329L71.0433 66.0487C65.1122 52.5751 49.3326 46.4425 35.8691 52.3737C22.3955 58.3049 16.2629 74.0845 22.1941 87.548L30.0688 105.432L24.1578 108.03L16.2831 90.146C8.92198 73.4199 16.5449 53.8238 33.271 46.4627C49.9972 39.1015 69.5933 46.7245 76.9544 63.4506L84.8291 81.3348Z" fill="#1C1C1C"/>
<path d="M66.6943 -11.4681L72.4776 -5.1854C73.828 -3.71844 73.7264 -1.435 72.2667 -0.0914707L53.6557 17.0403C52.1887 18.3907 49.9053 18.289 48.5617 16.8295L42.7785 10.5467C39.3002 6.76822 39.5509 0.884886 43.3219 -2.58648L53.561 -12.0117C57.3396 -15.4899 63.2229 -15.2392 66.6943 -11.4681Z" fill="#1C1C1C"/>
<path d="M85.2504 56.6653L79.4672 50.3825C78.1168 48.9156 78.2184 46.6321 79.6779 45.2886L98.2891 28.1568C99.756 26.8065 102.04 26.9081 103.383 28.3677L109.166 34.6504C112.644 38.4289 112.394 44.3122 108.622 47.7836L98.3837 57.2088C94.6052 60.687 88.7218 60.4364 85.2504 56.6653Z" fill="#1C1C1C"/>
<path d="M98.927 46.513L94.5567 41.76L108.937 28.5281C119.762 18.5589 120.467 1.64138 110.497 -9.18379C100.528 -20.009 83.6107 -20.7138 72.7855 -10.7446L58.4056 2.48726L54.0353 -2.26575L68.4151 -15.4976C81.8585 -27.8736 102.874 -27.0076 115.25 -13.5642C127.626 -0.120847 126.76 20.8951 113.317 33.271L98.9371 46.5029L98.927 46.513Z" fill="#1C1C1C"/>
<path d="M14.5281 40.9907L6.94331 37.0675C5.17234 36.1516 4.4861 33.9712 5.39749 32.2093L17.019 9.74119C17.935 7.97023 20.1152 7.28398 21.8772 8.19538L29.462 12.1186C34.0236 14.478 35.8022 20.0916 33.4474 24.6442L27.0538 37.0053C24.6943 41.5669 19.0807 43.3455 14.5281 40.9907Z" fill="#1C1C1C"/>
<path d="M-35.5972 -2.44699L-29.8674 0.52364L-38.8397 17.8842C-45.5966 30.955 -40.471 47.087 -27.3902 53.854C-14.3194 60.6109 1.81261 55.4853 8.57961 42.4045L17.5519 25.0439L23.2817 28.0145L14.3094 45.3751C5.91108 61.6078 -14.1281 67.9821 -30.3608 59.5838C-46.5936 51.1855 -52.9678 31.1463 -44.5695 14.9136L-35.5972 -2.44699Z" fill="#1C1C1C"/>
</g>
</g>
<defs>
<linearGradient id="paint0_linear_19_16" x1="-7.63497e-07" y1="0.578463" x2="108" y2="107.422" gradientUnits="userSpaceOnUse">
<stop stop-color="#FA163F"/>
<stop offset="1" stop-color="#83006B"/>
</linearGradient>
<clipPath id="clip0_19_16">
<rect width="108" height="108" fill="white"/>
</clipPath>
</defs>
</svg>
